<?xml version="1.0" standalone="no"?>
<!DOCTYPE svg PUBLIC "-//W3C//DTD SVG 20010904//EN"
 "http://www.w3.org/TR/2001/REC-SVG-20010904/DTD/svg10.dtd">
<svg version="1.0" xmlns="http://www.w3.org/2000/svg"
 width="200.000000pt" height="200.000000pt" viewBox="0 0 200.000000 200.000000"
 preserveAspectRatio="xMidYMid meet">
<metadata>
Created by potrace 1.16, written by Peter Selinger 2001-2019
</metadata>
<g transform="translate(0.000000,200.000000) scale(0.100000,-0.100000)"
  stroke="none">
<path d="M186 1287 c3 -8 -22 -50 -55 -95 -69 -93 -111 -171 -111 -205 0 -13
7 -38 16 -55 13 -27 18 -30 39 -22 100 38 175 108 175 163 0 43 -15 57 -64 57
l-40 0 26 28 c61 66 71 109 28 132 -15 8 -18 7 -14 -3z"/>
<path d="M570 1195 c-30 -49 -38 -55 -67 -55 -18 0 -33 -4 -33 -10 0 -5 9 -10
20 -10 11 0 20 -2 20 -4 0 -2 -16 -27 -35 -56 -44 -66 -49 -124 -11 -141 38
-18 66 -5 126 57 l55 56 -64 -51 c-36 -28 -71 -51 -79 -51 -21 0 -8 42 39 122
38 66 41 68 79 68 21 0 42 5 45 10 4 6 -8 10 -29 10 -41 0 -41 1 -20 41 14 28
12 70 -4 69 -4 -1 -23 -25 -42 -55z"/>
<path d="M313 1098 c-74 -77 -100 -137 -71 -166 45 -45 198 54 198 128 0 17
-4 30 -10 30 -5 0 -10 9 -10 20 0 18 -26 40 -47 40 -5 0 -32 -24 -60 -52z"/>
</g>
</svg>
